<?xml version="1.0" encoding="UTF-8"?>
<svg xmlns="http://www.w3.org/2000/svg" xmlns:xlink="http://www.w3.org/1999/xlink" width="48px" height="48px" viewBox="0 0 48 48" version="1.1">
<g id="surface1">
<path style=" stroke:none;fill-rule:nonzero;fill:rgb(0%,0%,0%);fill-opacity:1;" d="M 23.3125 3.65625 C 22.828125 3.894531 22.574219 4.335938 22.574219 4.921875 C 22.574219 5.441406 22.800781 5.882812 23.207031 6.164062 L 23.394531 6.296875 L 23.382812 6.910156 L 23.367188 7.523438 L 23.035156 7.546875 C 22.460938 7.589844 22.296875 7.78125 22.292969 8.445312 L 22.289062 8.859375 L 22.101562 8.878906 C 22 8.890625 21.59375 8.925781 21.207031 8.949219 C 18.777344 9.117188 16.925781 9.515625 13.804688 10.546875 C 11.652344 11.257812 11.125 11.390625 10.398438 11.390625 C 9.988281 11.390625 9.890625 11.34375 9.707031 11.035156 C 9.511719 10.703125 9.289062 10.539062 9.003906 10.507812 C 8.5 10.460938 8.199219 10.714844 8.164062 11.226562 C 8.140625 11.601562 8.25 11.859375 8.582031 12.210938 C 8.84375 12.492188 9.328125 12.765625 9.652344 12.820312 C 9.757812 12.839844 9.84375 12.875 9.84375 12.90625 C 9.84375 12.933594 9.304688 14.195312 8.640625 15.703125 C 7.976562 17.210938 7.257812 18.867188 7.03125 19.382812 C 6.523438 20.535156 5.621094 22.609375 4.851562 24.351562 C 4.53125 25.074219 4.023438 26.246094 3.710938 26.953125 C 3.402344 27.660156 3.121094 28.296875 3.089844 28.367188 C 3.039062 28.492188 3.015625 28.5 2.722656 28.5 C 2.253906 28.5 2.1875 28.527344 2.222656 28.707031 C 2.257812 28.894531 2.570312 29.539062 2.773438 29.867188 C 3.601562 31.152344 5.324219 32.28125 7.234375 32.789062 C 8.773438 33.203125 10.878906 33.28125 12.609375 33 C 14.648438 32.664062 16.222656 31.925781 17.394531 30.753906 C 17.960938 30.183594 18.351562 29.625 18.59375 29.03125 C 18.753906 28.644531 18.757812 28.621094 18.675781 28.5625 C 18.625 28.523438 18.453125 28.5 18.214844 28.5 L 17.835938 28.5 L 17.746094 28.273438 C 17.625 27.976562 16.589844 25.636719 15.609375 23.4375 C 13.078125 17.773438 11.476562 14.171875 11.011719 13.09375 L 10.925781 12.894531 L 11.101562 12.867188 C 11.195312 12.851562 11.71875 12.734375 12.257812 12.609375 C 14.15625 12.160156 15.101562 12.066406 18.398438 12 C 19.738281 11.976562 21.164062 11.953125 21.566406 11.953125 L 22.292969 11.953125 L 22.292969 12.335938 C 22.292969 12.929688 22.449219 13.140625 22.976562 13.265625 L 23.203125 13.320312 L 23.203125 13.5625 C 23.203125 13.695312 23.179688 14.226562 23.15625 14.742188 C 23.132812 15.257812 23.058594 16.878906 22.992188 18.351562 C 22.929688 19.820312 22.855469 21.488281 22.828125 22.054688 C 22.800781 22.621094 22.730469 24.265625 22.664062 25.710938 C 22.597656 27.15625 22.527344 28.777344 22.5 29.320312 C 22.335938 32.703125 22.3125 34.257812 22.425781 34.882812 C 22.507812 35.339844 22.710938 36.019531 22.808594 36.171875 C 22.875 36.277344 22.867188 36.285156 22.636719 36.402344 C 22.316406 36.5625 21.984375 36.875 21.816406 37.179688 C 21.699219 37.398438 21.679688 37.480469 21.679688 37.78125 C 21.683594 38.1875 21.769531 38.390625 22.101562 38.765625 C 22.21875 38.898438 22.3125 39.046875 22.3125 39.097656 C 22.3125 39.417969 21.722656 40.058594 20.972656 40.546875 C 19.804688 41.304688 18.402344 41.765625 16.429688 42.046875 C 15.226562 42.214844 14.679688 42.417969 14.234375 42.859375 C 13.835938 43.25 13.550781 44.058594 13.6875 44.390625 C 13.8125 44.691406 13.101562 44.671875 24 44.671875 C 34.90625 44.671875 34.1875 44.691406 34.3125 44.390625 C 34.386719 44.207031 34.320312 43.820312 34.152344 43.433594 C 33.777344 42.605469 33.238281 42.324219 31.476562 42.023438 C 29.875 41.757812 28.925781 41.480469 27.898438 40.992188 C 26.96875 40.546875 26.207031 39.980469 25.878906 39.484375 C 25.679688 39.183594 25.691406 39.054688 25.949219 38.757812 C 26.253906 38.40625 26.363281 38.152344 26.367188 37.78125 C 26.367188 37.234375 26.023438 36.730469 25.445312 36.441406 C 25.308594 36.375 25.191406 36.3125 25.179688 36.304688 C 25.175781 36.300781 25.222656 36.179688 25.289062 36.03125 C 25.355469 35.890625 25.46875 35.5625 25.539062 35.3125 C 25.660156 34.855469 25.664062 34.835938 25.660156 33.375 C 25.660156 32.5625 25.621094 31.15625 25.574219 30.257812 C 25.457031 27.742188 24.921875 15.074219 24.882812 13.714844 L 24.867188 13.296875 L 25.082031 13.246094 C 25.550781 13.125 25.757812 12.820312 25.726562 12.285156 L 25.710938 12 L 27.773438 12 C 30.3125 12 32.5625 12.070312 33.414062 12.164062 C 34.175781 12.253906 34.730469 12.355469 35.945312 12.636719 C 36.441406 12.75 36.894531 12.84375 36.960938 12.84375 C 37.023438 12.84375 37.082031 12.863281 37.097656 12.882812 C 37.117188 12.914062 36.851562 13.539062 35.792969 15.9375 C 35.605469 16.363281 35.171875 17.34375 34.832031 18.117188 C 34.492188 18.890625 34.046875 19.894531 33.84375 20.34375 C 33.640625 20.792969 32.757812 22.785156 31.878906 24.773438 C 31 26.757812 30.261719 28.410156 30.242188 28.449219 C 30.214844 28.496094 30.097656 28.519531 29.820312 28.523438 C 29.597656 28.523438 29.414062 28.550781 29.382812 28.585938 C 29.265625 28.703125 29.78125 29.742188 30.253906 30.328125 C 31.355469 31.691406 33.328125 32.679688 35.625 33.023438 C 36.839844 33.203125 38.632812 33.203125 39.75 33.023438 C 42.519531 32.570312 44.6875 31.203125 45.609375 29.320312 C 45.917969 28.691406 45.9375 28.609375 45.773438 28.546875 C 45.707031 28.523438 45.515625 28.5 45.347656 28.5 L 45.042969 28.5 L 44.972656 28.328125 C 44.929688 28.226562 44.453125 27.136719 43.90625 25.898438 C 43.367188 24.660156 42.84375 23.46875 42.75 23.25 C 42.65625 23.03125 42.171875 21.941406 41.6875 20.835938 C 41.195312 19.726562 40.5 18.144531 40.132812 17.320312 C 39.773438 16.496094 39.1875 15.167969 38.839844 14.375 C 38.488281 13.578125 38.203125 12.914062 38.203125 12.890625 C 38.203125 12.871094 38.289062 12.839844 38.394531 12.820312 C 38.742188 12.757812 39.207031 12.488281 39.507812 12.167969 C 39.929688 11.71875 40.03125 11.328125 39.839844 10.9375 C 39.703125 10.65625 39.464844 10.5 39.164062 10.5 C 38.835938 10.5 38.605469 10.644531 38.34375 11.011719 C 38.085938 11.375 37.988281 11.414062 37.382812 11.371094 C 36.636719 11.320312 36.160156 11.199219 34.101562 10.523438 C 31.429688 9.640625 29.476562 9.214844 27.050781 8.976562 C 26.652344 8.9375 26.210938 8.90625 26.066406 8.90625 C 25.921875 8.90625 25.78125 8.886719 25.753906 8.867188 C 25.726562 8.851562 25.703125 8.652344 25.695312 8.417969 C 25.683594 7.765625 25.484375 7.546875 24.929688 7.546875 L 24.65625 7.546875 L 24.65625 6.304688 L 24.882812 6.140625 C 25.148438 5.9375 25.382812 5.5625 25.457031 5.210938 C 25.554688 4.726562 25.375 4.171875 25.003906 3.84375 C 24.707031 3.585938 24.496094 3.515625 24.019531 3.515625 C 23.640625 3.515625 23.5625 3.53125 23.3125 3.65625 Z M 10.453125 13.96875 C 10.453125 13.992188 11.390625 16.117188 12.535156 18.6875 C 13.679688 21.261719 15.09375 24.441406 15.675781 25.757812 C 16.261719 27.070312 16.777344 28.226562 16.824219 28.320312 L 16.90625 28.5 L 10.472656 28.507812 C 6.929688 28.519531 4.03125 28.507812 4.03125 28.492188 C 4.03125 28.476562 4.316406 27.800781 4.667969 26.992188 C 5.019531 26.183594 5.574219 24.898438 5.90625 24.140625 C 6.234375 23.382812 6.8125 22.058594 7.1875 21.210938 C 9.214844 16.578125 10.289062 14.125 10.332031 13.976562 C 10.363281 13.878906 10.453125 13.875 10.453125 13.96875 Z M 37.734375 13.972656 C 37.734375 14 37.878906 14.351562 38.058594 14.757812 C 38.234375 15.160156 38.648438 16.101562 38.976562 16.851562 C 39.542969 18.144531 41.101562 21.675781 42.1875 24.140625 C 42.46875 24.773438 42.933594 25.828125 43.21875 26.484375 C 43.507812 27.140625 43.828125 27.859375 43.925781 28.078125 L 44.105469 28.476562 L 37.679688 28.492188 C 34.144531 28.496094 31.242188 28.492188 31.234375 28.480469 C 31.214844 28.46875 32.070312 26.507812 34.007812 22.148438 C 34.554688 20.910156 35.3125 19.199219 35.6875 18.351562 C 37.269531 14.742188 37.660156 13.878906 37.695312 13.902344 C 37.714844 13.917969 37.734375 13.949219 37.734375 13.972656 Z M 37.734375 13.972656 "/>
</g>
</svg>
